 <svg version="1.0" xmlns="http://www.w3.org/2000/svg" width="700.000000pt" height="700.000000pt" viewBox="0 0 700.000000 700.000000" preserveAspectRatio="xMidYMid meet">
<metadata>
Created by potrace 1.12, written by Peter Selinger 2001-2015
</metadata>
<g transform="translate(0.000000,700.000000) scale(0.100000,-0.100000)" fill="#2c3e50" stroke="none">
<path d="M1180 5251 c-15 -29 -14 -703 2 -719 15 -15 2753 -18 2763 -3 8 14 9
717 1 730 -5 8 -396 11 -1381 11 -1348 0 -1374 0 -1385 -19z"></path>
<path d="M1193 3900 l-23 -9 0 -353 c0 -205 4 -359 10 -368 8 -13 274 -15
2281 -18 1542 -1 2284 1 2310 8 l38 11 3 352 c2 276 0 355 -10 367 -11 13
-281 15 -2300 17 -1358 1 -2296 -2 -2309 -7z"></path>
<path d="M1181 2526 c-13 -15 -12 -718 1 -731 11 -12 4585 -7 4607 5 19 10 20
22 23 363 2 193 -1 358 -6 364 -13 20 -4609 19 -4625 -1z"></path>
</g>
</svg>